<?xml version="1.0" encoding="UTF-8"?>
<svg xmlns="http://www.w3.org/2000/svg" viewBox="243 338 128 102" width="128" height="102">
  <path fill="#6366f1" d="M364.21,369.16h-4v-10.67c0-7.55-6.14-13.69-13.69-13.69h-.38c-7.15,0-14.1-2.52-19.59-7.1l-5.15-4.3c-1.06-.89-2.41-1.37-3.79-1.37h-23.61c-1.38,0-2.72.49-3.78,1.37l-5.17,4.31c-5.49,4.57-12.45,7.09-19.59,7.09h-.36c-7.55,0-13.69,6.14-13.69,13.69v10.67h-4.62c-5,0-9.06,4.06-9.06,9.06v33.2c0,5,4.06,9.06,9.06,9.06h10.34c3.71,6.9,9.05,12.82,15.59,17.18l28.29,18.86c1.43.95,3.08,1.46,4.8,1.46s3.37-.5,4.79-1.45l28.3-18.87c6.54-4.36,11.88-10.27,15.59-17.18h9.72c4.99,0,9.06-4.06,9.06-9.06v-33.2c0-5-4.06-9.06-9.06-9.06ZM258.91,358.49c0-3.41,2.77-6.19,6.19-6.19h.36c8.9,0,17.56-3.14,24.39-8.83l4.73-3.94h22.46l4.71,3.93c6.83,5.7,15.5,8.84,24.4,8.84h.38c3.41,0,6.19,2.77,6.19,6.19v10.67h-5.91v-4.1c0-4.43-3.6-8.02-8.02-8.02h-11.24l-9.39-7.83c-1.06-.88-2.41-1.37-3.79-1.37h-17.12c-1.38,0-2.73.49-3.79,1.37l-9.39,7.83h-11.23c-4.43,0-8.02,3.6-8.02,8.02v4.1h-5.91v-10.67h0ZM339.31,369.16h-66.99v-4.1c0-.29.24-.52.52-.52h11.8c1.38,0,2.72-.48,3.79-1.37l9.39-7.83h15.97l9.39,7.83c1.06.88,2.41,1.37,3.79,1.37h11.82c.29,0,.52.24.52.52v4.1h0ZM334.74,431.41l-28.3,18.87c-.38.25-.87.25-1.26,0l-28.3-18.86c-4.35-2.9-8.05-6.64-10.97-10.94h7.52c2.19,2.59,4.7,4.87,7.53,6.75l20.39,13.59c1.32.88,2.86,1.34,4.45,1.34s3.12-.46,4.45-1.35l20.38-13.59c2.83-1.89,5.35-4.17,7.54-6.75h7.52c-2.92,4.3-6.62,8.03-10.97,10.94h.02ZM284.49,420.47h42.64c-.23.16-.42.36-.65.51l-20.38,13.59c-.19.12-.41.12-.58,0l-20.39-13.59c-.23-.15-.42-.35-.64-.51ZM365.77,411.41c0,.86-.7,1.56-1.56,1.56h-117.42c-.86,0-1.56-.7-1.56-1.56v-33.2c0-.86.7-1.56,1.56-1.56h117.42c.86,0,1.56.7,1.56,1.56v33.2Z"/>
  <polygon fill="#6366f1" points="278.69 385.25 271.31 390.18 271.87 381.37 265.92 381.37 266.51 390.18 259.13 385.25 256.13 390.52 264.09 394.39 256.13 398.27 259.13 403.47 266.51 398.54 265.92 407.35 271.87 407.35 271.31 398.54 278.69 403.47 281.63 398.27 273.73 394.39 281.63 390.52 278.69 385.25"/>
  <polygon fill="#6366f1" points="315.31 385.25 307.93 390.18 308.49 381.37 302.54 381.37 303.13 390.18 295.75 385.25 292.75 390.52 300.71 394.39 292.75 398.27 295.75 403.47 303.13 398.54 302.54 407.35 308.49 407.35 307.93 398.54 315.31 403.47 318.25 398.27 310.35 394.39 318.25 390.52 315.31 385.25"/>
  <polygon fill="#6366f1" points="351.93 385.25 344.55 390.18 345.11 381.37 339.16 381.37 339.75 390.18 332.37 385.25 329.37 390.52 337.33 394.39 329.37 398.27 332.37 403.47 339.75 398.54 339.16 407.35 345.11 407.35 344.55 398.54 351.93 403.47 354.87 398.27 346.97 394.39 354.87 390.52 351.93 385.25"/>
</svg>
